# xmcd
#
# Track frame offsets: 
#        150
#        8558
#        29228
#        49786
#        68822
#        92474
#        111500
#        128944
#        146187
#        160452
#        183688
#        202482
#        212061
#        232167
#        252740
#        272538
#        292467
#
# Disc length: 4101 seconds
#
# Revision: 1
# Processed by: cddbd v1.5.2PL0 Copyright (c) Steve Scherf et al.
# Submitted via: ExactAudioCopyFreeDBPlugin 1.0
#
DISCID=22100311
DTITLE=Alicia Keys - As I Am (The Super Edition)
DYEAR=2008
DGENRE=Pop
TTITLE0=As I Am (Intro)
TTITLE1=Go Ahead
TTITLE2=Superwoman
TTITLE3=No One
TTITLE4=Like You'll Never See Me Again
TTITLE5=Lesson Learned (feat. John Mayer)
TTITLE6=Wreckless Love
TTITLE7=The Thing About Love
TTITLE8=Teenage Love Affair
TTITLE9=I Need You
TTITLE10=Where Do We Go From Here
TTITLE11=Prelude To A Kiss
TTITLE12=Tell You Something (Nana's Reprise)
TTITLE13=Sure Looks Good To Me
TTITLE14=Jack White and Alicia Keys - Another Way To Die [Super Edition 
TTITLE14=Track]
TTITLE15=Doncha Know (Sky Is Blue) [Super Edition Track]
TTITLE16=Saviour [Super Edition Track]
EXTD=
EXTT0=
EXTT1=
EXTT2=
EXTT3=
EXTT4=
EXTT5=
EXTT6=
EXTT7=
EXTT8=
EXTT9=
EXTT10=
EXTT11=
EXTT12=
EXTT13=
EXTT14=
EXTT15=
EXTT16=
PLAYORDER=
